<svg width="548" height="571" viewBox="0 0 548 571" fill="none" xmlns="http://www.w3.org/2000/svg">
<g clip-path="url(#clip0_2346_57988)">
<path d="M274 570.986C425.326 570.986 548 448.315 548 296.993C548 145.671 425.326 23 274 23C122.674 23 0 145.671 0 296.993C0 448.315 122.674 570.986 274 570.986Z" fill="#D8F0FD"/>
<path d="M274 570.986C425.326 570.986 548 448.315 548 296.993C548 145.671 425.326 23 274 23C122.674 23 0 145.671 0 296.993C0 448.315 122.674 570.986 274 570.986Z" fill="url(#paint0_radial_2346_57988)"/>
<path d="M422.642 310.819C422.642 310.819 473.595 236.576 501 230.994C501 230.994 410.654 177.545 351.138 175.088C291.617 172.627 279.217 172.867 279.217 172.867L262.783 172.006C262.783 172.006 250.378 171.766 190.862 174.228C131.341 176.689 41 230.133 41 230.133C68.4051 235.71 119.358 309.958 119.358 309.958C119.358 309.958 48.1394 356.3 46 449C126 563.5 233.929 572.226 278.646 570.89C307.337 570.029 408.5 570.89 494 460C491.861 367.3 422.651 310.819 422.651 310.819H422.642Z" fill="url(#paint1_linear_2346_57988)"/>
<path d="M357.02 258.322C358.037 252.225 360.004 219 360.004 219H188.996C188.996 219 190.963 252.225 191.98 258.322C188.018 268.521 185 288.877 185 288.877C185 288.877 209.98 277.896 247.448 282.387C249.448 298.357 255.32 294.633 260.377 303.98C265.169 312.847 273.636 313.005 274.5 313C275.368 313.005 283.831 312.847 288.623 303.98C293.68 294.628 299.552 298.357 301.552 282.387C339.02 277.896 364 288.877 364 288.877C364 288.877 360.987 268.521 357.02 258.322Z" fill="url(#paint2_linear_2346_57988)"/>
<path d="M279 303V226H360.269L365 289.595L279 303Z" fill="url(#paint3_linear_2346_57988)"/>
<path d="M263 303V226H182.676L178 289.595L263 303Z" fill="url(#paint4_linear_2346_57988)"/>
<path d="M246.659 281.142L262 235.017C262 235.017 251.137 249.601 230.052 250.816C212.361 251.836 189.184 232 189.184 232L181 246.241L181.573 290.05L226.079 293L246.659 281.142Z" fill="url(#paint5_linear_2346_57988)"/>
<path d="M295.531 281.142L280 235.017C280 235.017 293.486 250.392 312.343 250.816C334.201 251.307 353.715 232 353.715 232L362 246.241L361.42 290.05L316.364 293L295.531 281.142Z" fill="url(#paint6_linear_2346_57988)"/>
<path d="M377.813 264.463C375.083 258.519 376.109 249.621 373.379 235.12C370.649 220.618 364.618 222.008 364.618 222.008C364.618 222.008 350.565 202.258 352.542 221.246C354.518 240.24 353.573 249.06 351.683 261.04C354.701 265.321 356.226 275.062 357.512 284.904C318.111 279.77 305.857 281.582 295.743 281.29C296.414 286.606 293.516 289.904 287.84 292.071C286.497 292.584 285.393 293.711 284.779 295.158C281.771 302.277 275.505 304.713 271.594 304.689C267.669 304.665 261.418 302.143 258.409 295.024C257.795 293.572 256.696 292.45 255.348 291.937C249.672 289.765 246.774 286.472 247.446 281.155C234.76 280.297 200.07 281.582 186.362 284.152C185.504 281.155 189.342 264.468 192.36 260.187C190.474 248.207 188.243 240.666 190.22 221.673C192.197 202.679 178.575 221.874 178.575 221.874C178.575 221.874 172.544 220.484 169.814 234.985C167.084 249.487 166.398 260.661 163.668 266.606C160.938 272.55 116.628 367.781 117.002 400.734C117.381 433.682 130.739 480.154 140.93 492.992C151.116 505.83 240.364 545.433 274.435 544.996C308.74 544.555 391.237 505.83 401.424 492.992C411.61 480.154 428.619 433.682 428.998 400.734C429.377 367.786 380.543 270.412 377.813 264.468V264.463Z" fill="url(#paint7_radial_2346_57988)"/>
<path d="M263.536 305.113C263.536 305.113 271.786 339.543 218.688 331.721C165.591 323.899 184.025 406.483 184.025 406.483L190.939 458.863L158.946 482L124.061 452.207C124.061 452.207 107.731 399.354 128.68 352.386C149.63 305.419 169.615 290.438 185.998 284.992C202.382 279.546 247.244 281.253 247.244 281.253C247.244 281.253 247.504 286.001 248.248 287.364C249.573 289.788 254.543 290.788 256.473 292.767C258.658 295.009 263.536 305.113 263.536 305.113Z" fill="url(#paint8_linear_2346_57988)"/>
<path d="M279.464 305.113C279.464 305.113 271.214 339.543 324.312 331.721C377.409 323.899 358.975 406.483 358.975 406.483L352.061 458.863L384.054 482L418.939 452.207C418.939 452.207 435.269 399.354 414.32 352.386C393.37 305.419 373.385 290.438 357.002 284.992C340.618 279.546 295.756 281.253 295.756 281.253C295.756 281.253 295.496 286.001 294.752 287.364C293.427 289.788 288.457 290.788 286.527 292.767C284.342 295.009 279.464 305.113 279.464 305.113Z" fill="url(#paint9_linear_2346_57988)"/>
<path d="M183.644 241.065C182.13 240.79 180.452 241.445 179.063 241.976C177.615 242.527 176.23 243.229 174.907 244.026C173.585 244.824 172.319 245.725 171.135 246.717C170.522 247.234 169.932 247.775 169.367 248.345C169.084 248.63 168.797 248.914 168.538 249.218C168.394 249.384 168.269 249.531 168.188 249.74C168.116 249.94 168.073 250.148 168.058 250.362C168.049 250.808 168.044 250.86 168.044 250.514C167.982 250.78 167.929 251.733 168.303 251.88C168.907 252.118 168.902 251.98 169.204 251.657C169.343 251.51 169.482 251.368 169.621 251.226C169.861 250.984 170.11 250.742 170.359 250.509C170.901 249.996 171.461 249.503 172.041 249.028C173.177 248.103 174.38 247.258 175.641 246.508C176.901 245.759 178.224 245.099 179.571 244.515C180.956 243.912 182.518 243.476 183.769 242.622C184.09 242.403 184.1 241.146 183.649 241.065H183.644Z" fill="#FFDBB9"/>
<path d="M185.621 253.001C184.089 252.972 182.473 253.861 181.141 254.532C179.702 255.257 178.322 256.098 176.991 256.997C174.265 258.838 171.764 260.978 169.53 263.38C168.901 264.051 168.292 264.742 167.707 265.448C167.054 266.235 166.278 267.023 166.062 268.043C165.968 268.492 165.885 269.893 166.577 269.995C166.951 270.053 167.177 269.618 167.368 269.367C167.614 269.043 167.869 268.719 168.125 268.4C168.64 267.762 169.171 267.139 169.721 266.53C170.772 265.366 171.902 264.269 173.081 263.23C175.498 261.094 178.116 259.258 180.896 257.615C182.502 256.668 184.344 255.919 185.759 254.702C186.034 254.46 186.171 253.01 185.626 253.001H185.621Z" fill="#FFDBB9"/>
<path d="M183.746 272C182.704 272.033 181.753 272.351 180.798 272.74C179.78 273.152 178.781 273.603 177.816 274.134C175.925 275.173 174.086 276.315 172.338 277.582C168.795 280.147 165.569 283.116 162.707 286.407C161.118 288.233 159.524 290.172 158.29 292.259C157.945 292.842 157.935 293.648 158.118 294.289C158.223 294.663 158.588 295.337 158.982 294.801C160.244 293.079 161.421 291.325 162.789 289.679C164.157 288.034 165.679 286.407 167.264 284.908C170.375 281.968 173.827 279.365 177.504 277.155C179.621 275.884 181.945 274.788 183.837 273.195C184.024 273.034 184.115 272 183.746 272.009V272Z" fill="#FFDBB9"/>
<path d="M262.178 308.752C262.029 310.082 261.804 311.296 261.386 312.567C260.968 313.839 260.329 315.14 259.575 316.31C257.956 318.829 255.737 320.906 253.268 322.561C250.674 324.304 247.811 325.58 244.795 326.357C240.985 327.337 237.047 327.677 233.127 327.789C225.778 327.997 218.381 327.342 211.079 328.454C204.849 329.4 198.494 331.608 193.998 336.253C189.118 341.296 186.942 348.344 185.573 355.1C185.4 355.955 185.237 356.814 185.078 357.668C184.958 358.323 184.925 359.25 185.362 359.804C185.799 360.357 186.14 359.605 186.236 359.221C187.888 352.766 189.257 346.024 193.691 340.758C197.875 335.792 204.215 333.39 210.421 332.346C217.694 331.123 225.072 331.725 232.402 331.579C239.544 331.439 246.932 330.497 253.057 326.493C258.215 323.124 262.548 317.688 262.971 311.296C263.028 310.437 263 309.582 262.894 308.728C262.87 308.553 262.788 307.99 262.514 308C262.241 308.01 262.193 308.568 262.173 308.748L262.178 308.752Z" fill="#FFDBB9"/>
<path d="M253.303 301.284C252.734 302.959 252.219 304.6 251.301 306.126C250.383 307.651 249.13 309.152 247.765 310.411C244.855 313.098 241.284 314.996 237.51 316.177C228.377 319.029 218.652 318.158 209.296 319.688C206.789 320.099 204.302 320.709 201.922 321.605C199.517 322.51 197.098 323.663 195.209 325.44C194.937 325.696 194.859 327.192 195.422 326.979C197.501 326.205 199.493 325.26 201.626 324.626C203.758 323.992 206.027 323.537 208.266 323.178C212.939 322.423 217.69 322.278 222.407 321.963C231.336 321.372 240.784 320.177 247.706 313.964C250.99 311.021 253.798 306.789 253.992 302.272C254.007 301.937 254.026 301.39 253.779 301.114C253.579 300.887 253.385 301.027 253.298 301.289L253.303 301.284Z" fill="#FFDBB9"/>
<path d="M159.3 318.041C157.8 319.812 156.629 321.779 155.487 323.789C154.344 325.799 153.259 327.909 152.261 330.025C150.184 334.423 148.337 338.931 146.775 343.534C143.637 352.771 141.511 362.347 140.561 372.052C139.636 381.504 139.843 391.061 141.27 400.45C142.697 409.84 145.18 418.549 148.815 427.054C152.42 435.495 157.145 443.468 163.05 450.532C163.74 451.355 164.521 452.116 165.273 452.887C165.567 453.188 165.846 452.824 165.938 452.542C166.068 452.13 165.991 451.642 165.731 451.303C160.206 444.076 155.197 436.558 151.345 428.307C147.595 420.272 144.871 411.754 143.237 403.049C141.574 394.181 141.034 385.117 141.607 376.115C142.205 366.73 143.95 357.427 146.722 348.44C148.13 343.879 149.779 339.385 151.659 334.997C153.549 330.589 155.742 326.335 157.839 322.023C158.403 320.87 158.943 319.711 159.464 318.534C159.507 318.434 159.464 317.84 159.295 318.041H159.3Z" fill="#FFDBB9"/>
<path d="M212.15 341.119C210.179 345.682 208.878 350.556 207.615 355.353C206.323 360.252 205.256 365.208 204.356 370.192C202.538 380.248 201.476 390.438 201.127 400.652C200.777 410.919 201.15 421.195 202.256 431.409C203.361 441.624 205.198 451.655 207.729 461.562C210.232 471.378 213.39 481.136 217.591 490.367C218.107 491.509 218.638 492.641 219.179 493.768C219.332 494.085 219.624 494.052 219.815 493.821C220.045 493.553 220.04 492.991 219.911 492.684C216.069 483.367 212.619 473.878 209.906 464.172C207.208 454.524 205.208 444.689 203.921 434.753C202.638 424.875 202.055 414.906 202.165 404.946C202.275 394.986 203.136 384.796 204.691 374.836C206.256 364.833 208.61 354.989 211.447 345.279C211.801 344.07 212.107 342.851 212.418 341.628C212.461 341.469 212.327 340.711 212.15 341.119Z" fill="#FFDBB9"/>
<path d="M234.372 289.159C221.263 288.092 207.97 292.486 197.038 299.494C185.58 306.837 176.41 317.258 170.25 329.312C163.445 342.624 160.372 357.621 160.03 372.484C159.679 387.932 162.39 403.321 167.129 418.003C169.557 425.523 172.485 432.875 175.746 440.075C178.958 447.164 182.425 454.254 186.442 460.931C187.42 462.554 188.446 464.143 189.428 465.761C189.64 466.106 189.939 466.058 190.141 465.742C190.372 465.383 190.295 464.789 190.107 464.43C188.239 460.898 186.51 457.293 184.66 453.751C182.811 450.209 181.12 446.848 179.459 443.344C176.107 436.298 173 429.137 170.38 421.789C165.367 407.735 161.971 393.034 161.572 378.085C161.172 363.136 163.464 349.474 169.152 336.372C174.513 324.032 182.946 313.242 193.869 305.281C204.296 297.68 216.726 292.869 229.696 292.266C231.276 292.194 232.865 292.175 234.449 292.194C235.196 292.204 235.196 289.226 234.372 289.159Z" fill="#FFDBB9"/>
<path d="M249.985 342.406C248.646 347.497 248.184 352.886 247.75 358.126C247.303 363.506 247.093 368.905 247.026 374.299C246.888 385.014 247.322 395.73 247.731 406.436C248.141 417.109 248.565 427.781 249.204 438.444C249.842 449.107 250.681 459.794 251.924 470.418C253.154 480.96 254.721 491.517 257.152 501.853C257.442 503.09 257.771 504.321 258.1 505.548C258.181 505.856 258.414 506.131 258.719 505.933C259.024 505.736 259.029 505.067 258.972 504.769C256.999 494.424 255.117 484.078 253.788 473.623C252.458 463.171 251.519 452.682 250.824 442.168C250.133 431.664 249.671 421.151 249.242 410.632C248.813 400.114 248.313 389.456 248.265 378.855C248.217 368.226 248.684 357.583 250.161 347.055C250.347 345.722 250.49 344.384 250.628 343.046C250.676 342.57 250.257 341.382 249.99 342.402L249.985 342.406Z" fill="#FFDBB9"/>
<path d="M358.264 242.607C359.538 243.441 361.104 243.877 362.503 244.476C363.901 245.076 365.179 245.704 366.448 246.444C367.716 247.184 368.923 248.013 370.061 248.932C370.643 249.4 371.2 249.887 371.748 250.393C372.296 250.899 372.752 251.476 373.315 251.935C373.714 252.258 373.935 251.284 373.959 251.12C374.04 250.581 374.026 249.864 373.685 249.4C373.954 250.717 374.05 250.993 373.963 250.22C373.939 250.009 373.882 249.808 373.805 249.611C373.718 249.419 373.598 249.278 373.459 249.119C373.185 248.815 372.892 248.529 372.599 248.243C372.032 247.681 371.441 247.147 370.826 246.636C369.639 245.657 368.375 244.767 367.049 243.98C365.722 243.193 364.333 242.499 362.882 241.956C361.503 241.441 359.807 240.789 358.312 241.066C357.846 241.15 357.962 242.406 358.269 242.607H358.264Z" fill="#FFDBB9"/>
<path d="M356.299 254.71C357.575 255.792 359.196 256.483 360.644 257.314C362.092 258.145 363.393 258.942 364.699 259.85C367.316 261.676 369.761 263.768 371.931 266.096C372.53 266.738 373.11 267.4 373.665 268.076C373.964 268.439 374.254 268.801 374.538 269.173C374.759 269.463 375.054 270.066 375.486 269.994C376.183 269.878 376.002 268.448 375.903 268.018C375.697 267.11 375.029 266.41 374.45 265.7C373.935 265.067 373.399 264.444 372.845 263.84C371.755 262.642 370.596 261.502 369.378 260.42C366.948 258.261 364.233 256.319 361.336 254.802C360.536 254.387 359.731 253.986 358.896 253.648C358.061 253.31 357.207 252.986 356.338 253C355.778 253.01 356.024 254.483 356.289 254.706L356.299 254.71Z" fill="#FFDBB9"/>
<path d="M358.195 273.19C359.933 274.627 362.022 275.666 363.971 276.804C365.805 277.875 367.572 279.056 369.286 280.308C372.762 282.85 375.935 285.776 378.73 289.033C380.309 290.878 381.659 292.855 383.084 294.809C383.478 295.35 383.843 294.605 383.925 294.259C384.078 293.59 384.002 292.837 383.651 292.239C382.542 290.371 381.135 288.626 379.733 286.966C378.331 285.311 376.829 283.737 375.249 282.248C372.085 279.265 368.585 276.652 364.792 274.499C363.764 273.916 362.708 273.38 361.613 272.925C360.519 272.47 359.429 272.038 358.229 272C357.849 271.986 358.017 273.039 358.195 273.186V273.19Z" fill="#FFDBB9"/>
<path d="M279.098 308.743C278.68 312.024 279.645 315.441 281.206 318.305C282.68 321.008 284.817 323.338 287.228 325.217C292.833 329.585 299.815 331.104 306.755 331.478C314.252 331.881 321.791 331.114 329.264 332.007C335.594 332.76 342.063 334.682 346.836 339.147C351.84 343.826 353.564 350.462 355.188 356.844C355.389 357.645 355.591 358.451 355.793 359.252C355.884 359.606 356.201 360.281 356.619 359.873C357.037 359.465 357.046 358.529 356.95 358.019C355.677 351.127 353.982 343.807 349.607 338.176C345.54 332.944 339.455 330.163 333.13 328.867C326.042 327.415 318.809 327.862 311.625 327.833C304.44 327.804 296.992 327.323 290.599 323.746C287.987 322.285 285.557 320.411 283.655 318.072C282.771 316.985 281.984 315.8 281.374 314.533C281.052 313.868 280.769 313.179 280.553 312.475C280.442 312.111 280.197 311.252 280.13 310.82C280.063 310.388 280.034 310.247 279.972 309.796C279.924 309.442 279.861 309.087 279.823 308.728C279.804 308.553 279.717 307.99 279.443 308C279.17 308.01 279.126 308.568 279.102 308.748L279.098 308.743Z" fill="#FFDBB9"/>
<path d="M288.008 302.03C288.187 306.093 290.393 309.963 293.191 312.831C295.989 315.699 299.501 317.862 303.28 319.192C312.539 322.437 322.473 321.659 332.066 322.921C334.602 323.255 337.109 323.719 339.576 324.377C342.044 325.035 344.269 326.094 346.62 326.98C347.183 327.192 347.023 325.678 346.761 325.432C345.056 323.855 342.938 322.766 340.796 321.901C338.653 321.035 336.506 320.445 334.286 319.985C329.788 319.061 325.173 318.824 320.598 318.553C311.81 318.026 302.474 317.16 295.362 311.443C293.725 310.127 292.258 308.584 291.092 306.833C289.926 305.082 289.353 303.374 288.741 301.493C288.678 301.304 288.557 300.878 288.275 301.033C287.993 301.188 287.993 301.788 288.003 302.035L288.008 302.03Z" fill="#FFDBB9"/>
<path d="M382.55 318.544C384.56 323.038 386.922 327.374 388.98 331.848C390.986 336.213 392.755 340.683 394.278 345.234C397.277 354.183 399.287 363.443 400.155 372.838C400.988 381.878 400.699 391.023 399.282 399.987C397.898 408.735 395.401 417.32 391.892 425.466C388.363 433.663 383.774 441.421 378.312 448.494C377.599 449.418 376.938 450.385 376.23 451.318C375.974 451.658 375.941 452.174 376.085 452.567C376.191 452.864 376.471 453.179 376.765 452.878C383.104 446.432 387.963 438.435 391.776 430.299C395.681 421.977 398.467 413.133 400.126 404.102C401.842 394.751 402.386 385.213 401.731 375.723C401.056 366.008 399.229 356.38 396.341 347.076C394.895 342.41 393.179 337.83 391.217 333.356C389.308 329.001 387.216 324.612 384.594 320.626C384.001 319.726 383.379 318.87 382.689 318.042C382.516 317.836 382.506 318.453 382.545 318.544H382.55Z" fill="#FFDBB9"/>
<path d="M329.587 341.641C330.87 346.563 332.372 351.422 333.588 356.364C334.779 361.218 335.837 366.102 336.694 371.024C338.412 380.887 339.445 390.856 339.747 400.863C340.048 410.822 339.641 420.796 338.55 430.697C337.44 440.743 335.617 450.706 333.061 460.483C330.506 470.26 327.204 479.62 323.557 488.965C323.093 490.154 322.614 491.339 322.131 492.524C321.978 492.898 321.925 493.407 322.16 493.767C322.351 494.059 322.677 494.102 322.844 493.747C327.233 484.609 330.616 475.009 333.315 465.242C336.024 455.437 338.01 445.42 339.292 435.326C340.575 425.233 341.149 414.741 340.967 404.418C340.785 394.195 339.905 383.957 338.249 373.864C336.617 363.91 334.315 354.046 331.118 344.476C330.736 343.334 330.295 342.226 329.822 341.118C329.644 340.705 329.544 341.497 329.577 341.641H329.587Z" fill="#FFDBB9"/>
<path d="M307.624 292.186C314.083 292.095 320.518 292.837 326.731 294.627C332.963 296.422 338.916 299.194 344.378 302.669C355.547 309.776 364.655 319.847 370.647 331.598C377.163 344.383 380.183 358.627 380.448 372.91C380.723 387.767 377.91 402.471 373.354 416.577C370.979 423.933 368.094 431.123 364.896 438.164C361.698 445.204 357.984 452.183 354.488 459.186C353.611 460.938 352.768 462.699 351.858 464.432C351.574 464.968 352.036 466.657 352.6 465.724C354.647 462.359 356.732 459.042 358.586 455.567C360.441 452.092 362.189 448.67 363.894 445.171C367.343 438.077 370.43 430.792 373.074 423.364C378.295 408.684 381.623 393.377 381.97 377.778C382.302 362.887 379.885 347.795 373.946 334.068C368.513 321.518 359.974 310.437 348.925 302.267C338.43 294.503 325.613 289.334 312.436 289.013C310.803 288.975 309.18 289.022 307.552 289.152C306.762 289.214 306.849 292.201 307.629 292.186H307.624Z" fill="#FFDBB9"/>
<path d="M291.374 343.069C291.917 348.328 292.713 353.548 293.099 358.826C293.49 364.133 293.675 369.455 293.718 374.776C293.809 385.357 293.342 395.932 292.918 406.498C292.499 417.016 292.06 427.529 291.422 438.037C290.784 448.531 289.936 459.015 288.706 469.456C287.472 479.907 285.767 490.266 283.79 500.601C283.537 501.914 283.304 503.237 283.056 504.551C282.984 504.931 282.922 505.605 283.266 505.889C283.609 506.172 283.832 505.865 283.923 505.518C286.658 495.294 288.278 484.757 289.621 474.263C290.969 463.74 291.86 453.155 292.546 442.57C293.237 431.912 293.695 421.241 294.109 410.569C294.528 399.796 295.005 389.013 295 378.226C294.995 367.439 294.49 356.69 292.78 346.066C292.58 344.825 292.303 343.608 291.989 342.39C291.927 342.15 291.803 341.89 291.555 342.049C291.308 342.207 291.36 342.838 291.384 343.064L291.374 343.069Z" fill="#FFDBB9"/>
<path d="M377.63 264.476C374.902 258.53 375.928 249.631 373.2 235.125C370.472 220.62 364.446 222.011 364.446 222.011C364.446 222.011 350.404 202.255 352.38 221.248C354.355 240.247 353.41 249.07 351.521 261.053C354.537 265.335 356.061 275.079 357.346 284.923C317.978 279.787 305.734 281.6 295.628 281.307C296.299 286.625 293.404 289.924 287.733 292.092C286.39 292.605 285.288 293.732 284.674 295.18C281.668 302.3 275.407 304.736 271.5 304.712C267.579 304.688 261.332 302.166 258.326 295.045C257.713 293.593 256.615 292.47 255.268 291.957C249.596 289.785 246.701 286.491 247.372 281.173C234.697 280.315 200.036 281.6 186.339 284.17C185.481 281.173 189.317 264.481 192.332 260.199C190.448 248.216 188.219 240.673 190.194 221.675C192.169 202.677 178.559 221.876 178.559 221.876C178.559 221.876 172.533 220.486 169.805 234.991C167.077 249.496 166.392 260.674 163.664 266.62C160.936 272.566 128.629 356.505 129.003 389.462C129.382 422.419 139.56 444.251 149.737 457.087C159.915 469.929 207.414 517.439 271.5 517.866V518C335.586 517.573 383.085 470.063 393.263 457.222C403.44 444.38 413.618 422.553 413.997 389.596C414.376 356.639 380.353 270.422 377.625 264.476H377.63Z" fill="url(#paint10_linear_2346_57988)"/>
<path d="M396.94 464.01C396.94 464.01 397.84 487.168 392.682 502.641C387.525 518.113 365.016 551.91 359.853 557.924C348.661 562.653 304.972 571.418 278.322 570.985C271.873 551.231 290.612 527.836 300.166 517.815C309.716 507.794 396.94 464 396.94 464V464.01Z" fill="#5598D5"/>
<path d="M384.464 487.006C384.464 487.006 392.035 481.278 393.421 467.511C394.807 453.743 394.377 424.765 384.464 416.228C374.55 407.692 368.085 418.354 367.655 422.19C367.225 426.026 368.519 442.77 367.655 455.721C366.791 468.671 364.458 479.224 367.563 482.692C370.668 486.16 374.121 492.127 384.464 487.011V487.006Z" fill="url(#paint11_linear_2346_57988)"/>
<path d="M366.281 414.255C369.678 413.197 374.695 415.275 377.241 423.431C379.788 431.587 382.311 441.08 382.957 450.712C383.603 460.345 387.522 481.524 385.351 488.963C383.18 496.403 383.741 512.984 366.286 518C347.981 517.865 353.92 493.825 353.92 493.825C353.92 493.825 358.547 477.566 358.585 465.923C358.623 454.281 358.162 447.033 357.735 438.877C357.312 430.721 354.765 417.843 366.286 414.25L366.281 414.255Z" fill="url(#paint12_linear_2346_57988)"/>
<path d="M364.131 522.396C366.997 512.904 367.349 497.409 367.862 482.875C368.375 468.341 367.529 446.799 364.131 443.627C360.738 440.455 355.254 439.566 350.559 444.314C345.469 449.462 344.619 464.909 344.196 470.484C343.773 476.059 341.648 493.223 339.529 498.798C337.409 504.373 325.956 519.392 329.772 525.395C333.589 531.403 335.713 537.406 342.499 536.978C349.285 536.551 359.697 537.07 364.131 522.392V522.396Z" fill="url(#paint13_linear_2346_57988)"/>
<path d="M336.763 540.129C336.763 540.129 342.882 529.977 345.833 520.133C348.785 510.288 350.89 503.441 349.625 494.45C348.36 485.459 349.356 471.701 342.462 466.201C336.56 461.492 326.865 470.483 326.025 495.735C325.86 500.722 314.56 506.107 310.806 510.763C307.057 515.424 302 519.274 302 525.695C302 532.116 302.831 547.278 336.767 540.124L336.763 540.129Z" fill="url(#paint14_linear_2346_57988)"/>
<path d="M144.06 464.005C144.06 464.005 143.161 487.238 148.312 502.76C153.464 518.283 177.635 550.724 182.786 556.763C193.089 560.536 224.793 569.56 261.628 571C268.069 551.183 250.262 528.042 240.719 517.988C231.18 507.934 144.06 464 144.06 464V464.005Z" fill="#5598D5"/>
<path d="M156.536 487.007C156.536 487.007 148.965 481.279 147.579 467.511C146.193 453.743 146.623 424.765 156.536 416.228C166.45 407.692 172.915 418.354 173.345 422.19C173.775 426.026 172.481 442.77 173.345 455.721C174.209 468.672 176.542 479.225 173.437 482.693C170.327 486.156 166.879 492.128 156.536 487.012V487.007Z" fill="url(#paint15_linear_2346_57988)"/>
<path d="M174.719 414.255C171.322 413.197 166.305 415.275 163.759 423.431C161.212 431.587 158.689 441.08 158.043 450.712C157.397 460.345 153.478 481.524 155.649 488.963C157.82 496.403 157.259 512.984 174.714 518C193.019 517.865 187.08 493.825 187.08 493.825C187.08 493.825 182.453 477.566 182.415 465.923C182.377 454.281 182.838 447.033 183.265 438.877C183.693 430.721 186.235 417.843 174.714 414.25L174.719 414.255Z" fill="url(#paint16_linear_2346_57988)"/>
<path d="M176.869 522.396C174.003 512.904 173.651 497.409 173.138 482.875C172.625 468.341 173.471 446.799 176.869 443.627C180.262 440.455 185.746 439.566 190.441 444.314C195.531 449.462 196.381 464.909 196.804 470.484C197.227 476.059 199.352 493.223 201.471 498.798C203.591 504.373 215.044 519.392 211.228 525.395C207.411 531.403 205.287 537.406 198.501 536.978C191.715 536.551 181.303 537.07 176.869 522.392V522.396Z" fill="url(#paint17_linear_2346_57988)"/>
<path d="M201.862 539.023C201.862 539.023 196.326 528.51 193.974 518.508C191.623 508.507 189.932 501.546 191.795 492.67C193.653 483.799 193.538 470.025 200.87 464.994C207.149 460.69 216.377 470.279 215.596 495.495C215.443 500.474 226.529 506.578 230.025 511.466C233.521 516.354 238.392 520.524 237.975 526.92C237.558 533.316 235.739 548.368 201.857 539.018L201.862 539.023Z" fill="url(#paint18_linear_2346_57988)"/>
<path opacity="0.42" d="M271.5 493C312.645 493 346 459.645 346 418.5C346 377.355 312.645 344 271.5 344C230.355 344 197 377.355 197 418.5C197 459.645 230.355 493 271.5 493Z" fill="white"/>
<path opacity="0.33" d="M271.5 518C326.452 518 371 473.452 371 418.5C371 363.548 326.452 319 271.5 319C216.548 319 172 363.548 172 418.5C172 473.452 216.548 518 271.5 518Z" fill="white"/>
<path d="M200 231C200 231 220.728 241.259 230.905 240.412C241.081 239.564 256 232.143 256 232.143C256 232.143 248.835 242.436 239.512 244.984C230.188 247.532 217.996 247.808 215.488 244.984C212.979 242.16 200.005 231 200.005 231H200Z" fill="#5598D5"/>
<path d="M343 231C343 231 321.902 241.258 311.544 240.411C301.185 239.563 286 232.143 286 232.143C286 232.143 293.293 242.435 302.783 244.982C312.272 247.535 324.682 247.807 327.236 244.982C329.789 242.158 342.995 231 342.995 231H343Z" fill="#5598D5"/>
<path d="M458.298 169.389C439.871 165.534 387.585 155.679 375.581 147.106C372.696 145.046 365.739 143.553 356.847 142.478C352.761 132.176 342.592 114.982 336.369 99.9708C329.086 82.4015 320.943 79.4012 318.797 69.9781C316.655 60.5502 310.226 61.4095 311.941 57.1227C313.655 52.836 307.653 48.9813 307.653 48.9813C307.653 48.9813 324.366 56.6955 331.655 59.6957C338.938 62.696 353.083 62.696 367.655 57.982C354.797 42.9857 342.798 33.1305 331.655 19.4159C322.1 7.65975 303.798 1.41928 296.082 0.560011C287.891 -0.352059 277.655 -0.299254 257.508 1.84651C237.362 3.99227 235.653 11.2744 231.365 22.4161C227.078 33.5577 223.222 63.5504 214.652 70.8374C206.082 78.1243 201.367 94.4024 195.793 108.117C191.448 118.807 180.856 136.521 176.396 143.817C171.786 144.71 168.277 145.795 166.433 147.11C154.435 155.679 102.149 165.534 83.7165 169.394C65.2891 173.248 37 189.963 37 189.963C152.716 241.38 272.714 237.953 272.714 237.953C272.714 237.953 389.284 241.38 505 189.963C505 189.963 476.716 173.253 458.284 169.394L458.298 169.389Z" fill="url(#paint19_linear_2346_57988)"/>
<path d="M37.0048 190C152.719 241.377 272.716 237.953 272.716 237.953C272.716 237.953 389.286 241.377 505 190C354.529 240.84 198.662 242.068 37 190H37.0048Z" fill="url(#paint20_linear_2346_57988)"/>
<path d="M195.897 107.864C195.897 107.864 211.772 129.52 267.113 129.088C315.255 128.709 339.612 107 339.612 107L357 142.388C357 142.388 330.711 170.905 269.684 171.973C208.657 173.035 177 142.703 177 142.703C177 142.703 192.572 118.049 195.897 107.869V107.864Z" fill="url(#paint21_linear_2346_57988)"/>
<path d="M267.313 130.925C302.074 131.966 347.154 121.913 342.757 113.002C340.583 108.594 338.49 104.153 336.724 99.8843C329.443 82.3302 321.302 79.3326 319.156 69.9176C317.011 60.5026 310.589 61.3564 312.302 57.0733C314.016 52.7903 308.016 48.9389 308.016 48.9389C308.016 48.9389 324.724 56.6465 332.01 59.6441C339.292 62.6417 353.432 62.6417 368 57.9319C355.146 42.9485 343.151 33.1018 332.01 19.3991C322.459 7.65313 304.161 1.41805 296.448 0.559527C288.259 -0.351754 278.026 -0.298996 257.886 1.84491C237.75 3.98402 236.037 11.2647 231.75 22.3967C227.464 33.5287 223.61 63.4955 215.042 70.7761C206.474 78.0568 201.761 94.3207 196.188 108.024C192.934 116.024 232.552 129.889 267.313 130.93V130.925Z" fill="url(#paint22_linear_2346_57988)"/>
<path d="M314.416 126.957C309.413 127.288 284.202 129.218 267.248 129.348C254.198 129.448 243.347 128.33 234.383 126.568C229.966 129.151 267.2 131.426 256.383 154.391C248.182 171.805 177.228 142.82 177.228 142.82C177.228 142.82 208.854 172.832 269.822 171.78C330.789 170.729 357.052 142.508 357.052 142.508C357.052 142.508 307.709 165.472 296.349 157.569C286.674 150.838 290.203 136.65 314.416 126.957Z" fill="url(#paint23_linear_2346_57988)"/>
<path d="M295.773 112.553C271.881 114.603 283.246 92.0805 277.638 53.2532L270.969 82.2044C277.883 104.28 272.443 115.582 251.149 113.057C251.149 113.057 291.231 130.255 234.057 126.76C244.586 129.098 256.162 130.735 267.248 131.066C282.68 131.527 300.147 129.803 314.416 126.961C282.742 125.905 280.442 120.528 295.773 112.558V112.553Z" fill="url(#paint24_linear_2346_57988)"/>
<rect x="214" y="362" width="114" height="114" rx="57" fill="white"/>
<rect x="214" y="362" width="114" height="114" rx="57" fill="url(#paint25_radial_2346_57988)"/>
<path d="M307.448 404.92C304.074 397.8 297.191 392.87 289.433 392.288C285.632 391.935 281.71 392.578 278.283 394.304C275.982 395.446 273.933 397.03 272.212 398.917C268.661 394.892 263.645 392.256 258.231 391.985C246.848 391.299 237.037 398.67 234.646 410.107C233.194 416.958 234.778 424.113 237.923 430.139C241.062 436.083 245.644 441.368 251.604 444.473C255.763 446.498 259.662 441.363 256.62 437.772C255.65 436.686 254.756 435.532 253.942 434.298C253.185 433.154 252.505 431.952 251.888 430.721C250.175 427.21 248.896 423.256 248.643 419.362C248.493 416.887 248.817 414.755 249.845 412.601C250.818 410.592 252.394 408.866 254.464 408.054C257.682 406.833 261.041 407.49 263.487 410.126C265.076 411.763 265.804 414.054 266.616 416.168C266.676 416.321 266.742 416.468 266.811 416.613C268.427 421.598 275.834 421.724 277.218 416.054C277.26 415.862 277.302 415.667 277.347 415.469C277.355 415.437 277.363 415.408 277.371 415.377C277.379 415.345 277.384 415.314 277.392 415.279C277.511 414.773 277.648 414.267 277.824 413.795C278.375 412.274 279.292 410.806 280.394 409.686C282.055 407.996 284.172 406.976 286.489 407.202C287.786 407.276 289.249 407.63 290.303 408.202C296.218 411.41 295.602 419.84 293.066 425.394C291.284 429.284 288.432 432.54 285.268 435.353C284.485 436.046 283.592 436.81 282.783 437.456C279.074 440.337 278.125 445.791 281.056 449.7C284.201 453.997 290.464 454.205 294.062 450.383C294.769 449.685 295.451 448.96 296.124 448.23C302.911 440.648 309.08 429.395 310.039 419.025C310.434 414.177 309.573 409.332 307.445 404.92H307.448Z" fill="url(#paint26_radial_2346_57988)"/>
</g>
<defs>
<radialGradient id="paint0_radial_2346_57988" cx="0" cy="0" r="1" gradientUnits="userSpaceOnUse" gradientTransform="translate(375.254 533.963) rotate(-119.65) scale(553.862 767.447)">
<stop offset="0.0001" stop-color="#A7FFEE"/>
<stop offset="1" stop-color="#79CCFF"/>
</radialGradient>
<linearGradient id="paint1_linear_2346_57988" x1="270.995" y1="571" x2="270.995" y2="172.002" gradientUnits="userSpaceOnUse">
<stop stop-color="#83FFEE"/>
<stop offset="0.13" stop-color="#73DDE5"/>
<stop offset="0.28" stop-color="#66BEDE"/>
<stop offset="0.42" stop-color="#5CA9D9"/>
<stop offset="0.56" stop-color="#569CD6"/>
<stop offset="0.69" stop-color="#5598D5"/>
</linearGradient>
<linearGradient id="paint2_linear_2346_57988" x1="274.5" y1="313" x2="274.5" y2="219" gradientUnits="userSpaceOnUse">
<stop stop-color="white"/>
<stop offset="0.25" stop-color="#FBFCFE"/>
<stop offset="0.48" stop-color="#F0F6FB"/>
<stop offset="0.69" stop-color="#DEEBF6"/>
<stop offset="0.8" stop-color="#D3E4F4"/>
</linearGradient>
<linearGradient id="paint3_linear_2346_57988" x1="365" y1="264.498" x2="279.005" y2="264.498" gradientUnits="userSpaceOnUse">
<stop stop-color="white" stop-opacity="0"/>
<stop offset="0.26" stop-color="#FEFEFE" stop-opacity="0.01"/>
<stop offset="0.4" stop-color="#FBFCFE" stop-opacity="0.04"/>
<stop offset="0.51" stop-color="#F6FAFC" stop-opacity="0.1"/>
<stop offset="0.61" stop-color="#EFF5FB" stop-opacity="0.18"/>
<stop offset="0.7" stop-color="#E7F0F9" stop-opacity="0.29"/>
<stop offset="0.78" stop-color="#DCEAF6" stop-opacity="0.42"/>
<stop offset="0.85" stop-color="#CFE2F3" stop-opacity="0.58"/>
<stop offset="0.92" stop-color="#C0D9EF" stop-opacity="0.76"/>
<stop offset="0.99" stop-color="#B0CFEB" stop-opacity="0.96"/>
<stop offset="1" stop-color="#ADCEEB"/>
</linearGradient>
<linearGradient id="paint4_linear_2346_57988" x1="178" y1="264.498" x2="263" y2="264.498" gradientUnits="userSpaceOnUse">
<stop stop-color="white" stop-opacity="0"/>
<stop offset="0.26" stop-color="#FEFEFE" stop-opacity="0.01"/>
<stop offset="0.4" stop-color="#FBFCFE" stop-opacity="0.04"/>
<stop offset="0.51" stop-color="#F6FAFC" stop-opacity="0.1"/>
<stop offset="0.61" stop-color="#EFF5FB" stop-opacity="0.18"/>
<stop offset="0.7" stop-color="#E7F0F9" stop-opacity="0.29"/>
<stop offset="0.78" stop-color="#DCEAF6" stop-opacity="0.42"/>
<stop offset="0.85" stop-color="#CFE2F3" stop-opacity="0.58"/>
<stop offset="0.92" stop-color="#C0D9EF" stop-opacity="0.76"/>
<stop offset="0.99" stop-color="#B0CFEB" stop-opacity="0.96"/>
<stop offset="1" stop-color="#ADCEEB"/>
</linearGradient>
<linearGradient id="paint5_linear_2346_57988" x1="181" y1="262.498" x2="262" y2="262.498" gradientUnits="userSpaceOnUse">
<stop stop-color="#ADCEEB"/>
<stop offset="0.05" stop-color="#BAD6EE"/>
<stop offset="0.17" stop-color="#D3E5F4"/>
<stop offset="0.3" stop-color="#E7F0F9"/>
<stop offset="0.46" stop-color="#F4F8FC"/>
<stop offset="0.65" stop-color="#FCFDFE"/>
<stop offset="1" stop-color="white"/>
</linearGradient>
<linearGradient id="paint6_linear_2346_57988" x1="362" y1="262.498" x2="280" y2="262.498" gradientUnits="userSpaceOnUse">
<stop stop-color="#ADCEEB"/>
<stop offset="0.05" stop-color="#BAD6EE"/>
<stop offset="0.17" stop-color="#D3E5F4"/>
<stop offset="0.3" stop-color="#E7F0F9"/>
<stop offset="0.46" stop-color="#F4F8FC"/>
<stop offset="0.65" stop-color="#FCFDFE"/>
<stop offset="1" stop-color="white"/>
</linearGradient>
<radialGradient id="paint7_radial_2346_57988" cx="0" cy="0" r="1" gradientUnits="userSpaceOnUse" gradientTransform="translate(273 378.999) scale(161.151 161.012)">
<stop stop-color="#FFCB9C"/>
<stop offset="0.34" stop-color="#FFC999"/>
<stop offset="0.54" stop-color="#FFC591"/>
<stop offset="0.7" stop-color="#FFBE83"/>
<stop offset="0.83" stop-color="#FFB46F"/>
<stop offset="0.96" stop-color="#FFA756"/>
<stop offset="1" stop-color="#FFA24C"/>
</radialGradient>
<linearGradient id="paint8_linear_2346_57988" x1="191.002" y1="482.005" x2="191.002" y2="281.005" gradientUnits="userSpaceOnUse">
<stop stop-color="#FFB470" stop-opacity="0"/>
<stop offset="0.15" stop-color="#FFB36F" stop-opacity="0.01"/>
<stop offset="0.28" stop-color="#FFB26C" stop-opacity="0.05"/>
<stop offset="0.4" stop-color="#FFAF67" stop-opacity="0.12"/>
<stop offset="0.52" stop-color="#FFAC61" stop-opacity="0.22"/>
<stop offset="0.63" stop-color="#FFA758" stop-opacity="0.35"/>
<stop offset="0.74" stop-color="#FFA24E" stop-opacity="0.5"/>
<stop offset="0.85" stop-color="#FF9C41" stop-opacity="0.68"/>
<stop offset="0.95" stop-color="#FF9433" stop-opacity="0.89"/>
<stop offset="1" stop-color="#FF912C"/>
</linearGradient>
<linearGradient id="paint9_linear_2346_57988" x1="351.998" y1="482.005" x2="351.998" y2="281.005" gradientUnits="userSpaceOnUse">
<stop stop-color="#FFB470" stop-opacity="0"/>
<stop offset="0.15" stop-color="#FFB36F" stop-opacity="0.01"/>
<stop offset="0.28" stop-color="#FFB26C" stop-opacity="0.05"/>
<stop offset="0.4" stop-color="#FFAF67" stop-opacity="0.12"/>
<stop offset="0.52" stop-color="#FFAC61" stop-opacity="0.22"/>
<stop offset="0.63" stop-color="#FFA758" stop-opacity="0.35"/>
<stop offset="0.74" stop-color="#FFA24E" stop-opacity="0.5"/>
<stop offset="0.85" stop-color="#FF9C41" stop-opacity="0.68"/>
<stop offset="0.95" stop-color="#FF9433" stop-opacity="0.89"/>
<stop offset="1" stop-color="#FF912C"/>
</linearGradient>
<linearGradient id="paint10_linear_2346_57988" x1="271.505" y1="518.005" x2="271.505" y2="212.996" gradientUnits="userSpaceOnUse">
<stop stop-color="#FFB470" stop-opacity="0"/>
<stop offset="0.15" stop-color="#FFB36F" stop-opacity="0.01"/>
<stop offset="0.28" stop-color="#FFB26C" stop-opacity="0.05"/>
<stop offset="0.4" stop-color="#FFAF67" stop-opacity="0.12"/>
<stop offset="0.52" stop-color="#FFAC61" stop-opacity="0.22"/>
<stop offset="0.63" stop-color="#FFA758" stop-opacity="0.35"/>
<stop offset="0.74" stop-color="#FFA24E" stop-opacity="0.5"/>
<stop offset="0.85" stop-color="#FF9C41" stop-opacity="0.68"/>
<stop offset="0.95" stop-color="#FF9433" stop-opacity="0.89"/>
<stop offset="1" stop-color="#FF912C"/>
</linearGradient>
<linearGradient id="paint11_linear_2346_57988" x1="393.851" y1="449.458" x2="365.98" y2="452.103" gradientUnits="userSpaceOnUse">
<stop offset="0.18" stop-color="#D4E5F4"/>
<stop offset="0.29" stop-color="#DFECF6"/>
<stop offset="0.5" stop-color="#F1F6FB"/>
<stop offset="0.73" stop-color="#FBFCFE"/>
<stop offset="1" stop-color="white"/>
</linearGradient>
<linearGradient id="paint12_linear_2346_57988" x1="385.992" y1="466" x2="352.993" y2="466" gradientUnits="userSpaceOnUse">
<stop offset="0.18" stop-color="#D4E5F4"/>
<stop offset="0.28" stop-color="#DFECF6"/>
<stop offset="0.5" stop-color="#F1F6FB"/>
<stop offset="0.73" stop-color="#FBFCFE"/>
<stop offset="1" stop-color="white"/>
</linearGradient>
<linearGradient id="paint13_linear_2346_57988" x1="374.862" y1="495.135" x2="324.83" y2="483.19" gradientUnits="userSpaceOnUse">
<stop offset="0.19" stop-color="#D4E5F4"/>
<stop offset="0.3" stop-color="#DFECF6"/>
<stop offset="0.51" stop-color="#F1F6FB"/>
<stop offset="0.73" stop-color="#FBFCFE"/>
<stop offset="1" stop-color="white"/>
</linearGradient>
<linearGradient id="paint14_linear_2346_57988" x1="351.509" y1="512.777" x2="315.133" y2="499.119" gradientUnits="userSpaceOnUse">
<stop offset="0.21" stop-color="#D4E5F4"/>
<stop offset="0.31" stop-color="#DFECF6"/>
<stop offset="0.52" stop-color="#F1F6FB"/>
<stop offset="0.74" stop-color="#FBFCFE"/>
<stop offset="1" stop-color="white"/>
</linearGradient>
<linearGradient id="paint15_linear_2346_57988" x1="147.145" y1="449.458" x2="175.02" y2="452.103" gradientUnits="userSpaceOnUse">
<stop offset="0.21" stop-color="#D4E5F4"/>
<stop offset="0.31" stop-color="#DFECF6"/>
<stop offset="0.52" stop-color="#F1F6FB"/>
<stop offset="0.74" stop-color="#FBFCFE"/>
<stop offset="1" stop-color="white"/>
</linearGradient>
<linearGradient id="paint16_linear_2346_57988" x1="155.003" y1="466" x2="188.002" y2="466" gradientUnits="userSpaceOnUse">
<stop offset="0.21" stop-color="#D4E5F4"/>
<stop offset="0.31" stop-color="#DFECF6"/>
<stop offset="0.52" stop-color="#F1F6FB"/>
<stop offset="0.74" stop-color="#FBFCFE"/>
<stop offset="1" stop-color="white"/>
</linearGradient>
<linearGradient id="paint17_linear_2346_57988" x1="166.133" y1="495.135" x2="216.17" y2="483.19" gradientUnits="userSpaceOnUse">
<stop offset="0.19" stop-color="#D4E5F4"/>
<stop offset="0.3" stop-color="#DFECF6"/>
<stop offset="0.51" stop-color="#F1F6FB"/>
<stop offset="0.73" stop-color="#FBFCFE"/>
<stop offset="1" stop-color="white"/>
</linearGradient>
<linearGradient id="paint18_linear_2346_57988" x1="188.701" y1="510.814" x2="226.279" y2="499.206" gradientUnits="userSpaceOnUse">
<stop offset="0.21" stop-color="#D4E5F4"/>
<stop offset="0.31" stop-color="#DFECF6"/>
<stop offset="0.52" stop-color="#F1F6FB"/>
<stop offset="0.74" stop-color="#FBFCFE"/>
<stop offset="1" stop-color="white"/>
</linearGradient>
<linearGradient id="paint19_linear_2346_57988" x1="271.014" y1="237.554" x2="271.014" y2="-0.438459" gradientUnits="userSpaceOnUse">
<stop stop-color="#49FFE6"/>
<stop offset="0.03" stop-color="#4AEFE3"/>
<stop offset="0.11" stop-color="#4ED0DE"/>
<stop offset="0.19" stop-color="#51B7DA"/>
<stop offset="0.28" stop-color="#53A5D7"/>
<stop offset="0.37" stop-color="#549BD5"/>
<stop offset="0.47" stop-color="#5598D5"/>
</linearGradient>
<linearGradient id="paint20_linear_2346_57988" x1="271.007" y1="237.914" x2="271.007" y2="189.909" gradientUnits="userSpaceOnUse">
<stop stop-color="#B6FFF5"/>
<stop offset="0.99" stop-color="#94BEE4"/>
</linearGradient>
<linearGradient id="paint21_linear_2346_57988" x1="266.998" y1="171.997" x2="266.998" y2="107" gradientUnits="userSpaceOnUse">
<stop stop-color="#90FFF0"/>
<stop offset="0.99" stop-color="#94BEE4"/>
</linearGradient>
<linearGradient id="paint22_linear_2346_57988" x1="282" y1="138.475" x2="282" y2="36.5551" gradientUnits="userSpaceOnUse">
<stop stop-color="#49FFE6"/>
<stop offset="0.03" stop-color="#4AEFE3"/>
<stop offset="0.11" stop-color="#4ED0DE"/>
<stop offset="0.19" stop-color="#51B7DA"/>
<stop offset="0.28" stop-color="#53A5D7"/>
<stop offset="0.37" stop-color="#549BD5"/>
<stop offset="0.47" stop-color="#5598D5"/>
</linearGradient>
<linearGradient id="paint23_linear_2346_57988" x1="268.905" y1="174.474" x2="261.929" y2="48.841" gradientUnits="userSpaceOnUse">
<stop stop-color="#B6FFF5"/>
<stop offset="0.99" stop-color="#94BEE4"/>
</linearGradient>
<linearGradient id="paint24_linear_2346_57988" x1="274.234" y1="182.785" x2="274.234" y2="-5.92641" gradientUnits="userSpaceOnUse">
<stop stop-color="#90FFF0"/>
<stop offset="0.99" stop-color="#94BEE4"/>
</linearGradient>
<radialGradient id="paint25_radial_2346_57988" cx="0" cy="0" r="1" gradientUnits="userSpaceOnUse" gradientTransform="translate(214 361.846) rotate(44.7377) scale(156.046 255.461)">
<stop stop-color="white"/>
<stop offset="0.344027" stop-color="white"/>
<stop offset="1" stop-color="#F5F7FF" stop-opacity="0.945257"/>
</radialGradient>
<radialGradient id="paint26_radial_2346_57988" cx="0" cy="0" r="1" gradientUnits="userSpaceOnUse" gradientTransform="translate(286.166 448.964) rotate(-125.286) scale(65.8075 100.009)">
<stop offset="0.0001" stop-color="#09FFD0"/>
<stop offset="1" stop-color="#009EFF"/>
</radialGradient>
<clipPath id="clip0_2346_57988">
<rect width="548" height="571" fill="white"/>
</clipPath>
</defs>
</svg>
